<svg width="32" height="32" viewBox="0 0 32 32" fill="none" xmlns="http://www.w3.org/2000/svg">
<g filter="url(#filter0_d_1654_15264)">
<rect x="4" width="24" height="24" rx="7" fill="#008DFF" shape-rendering="crispEdges"/>
<rect x="4" width="24" height="24" rx="7" fill="white" fill-opacity="0.2" shape-rendering="crispEdges"/>
<g filter="url(#filter1_d_1654_15264)">
<path d="M8 4H9.62563C10.193 4 10.4767 4 10.7021 4.12433C10.7951 4.17561 10.8793 4.24136 10.9516 4.31912C11.1269 4.50769 11.1957 4.7829 11.3333 5.33333L11.5149 6.05972C11.616 6.46402 11.6665 6.66617 11.7445 6.83576C12.0153 7.42449 12.5546 7.84553 13.1914 7.96546C13.3749 8 13.5833 8 14 8V8" stroke="#33363F" stroke-width="2" stroke-linecap="round"/>
</g>
<g filter="url(#filter2_d_1654_15264)">
<path d="M22 17H11.5509C11.4047 17 11.3316 17 11.2762 16.9938C10.6886 16.928 10.286 16.3695 10.4094 15.7913C10.4211 15.7367 10.4442 15.6674 10.4904 15.5287V15.5287C10.5418 15.3747 10.5674 15.2977 10.5958 15.2298C10.8861 14.5342 11.5428 14.0608 12.2945 14.0054C12.3679 14 12.4491 14 12.6114 14H18" stroke="#33363F" stroke-width="2" stroke-linecap="round" stroke-linejoin="round"/>
</g>
<g filter="url(#filter3_d_1654_15264)">
<path d="M18.5279 14H14.9743C13.7584 14 13.1504 14 12.6815 13.7246C12.4834 13.6083 12.3069 13.4588 12.1596 13.2825C11.8109 12.8652 11.7109 12.2655 11.511 11.0662C11.3085 9.85093 11.2072 9.2433 11.4476 8.79324C11.548 8.60536 11.6872 8.44101 11.856 8.31113C12.2604 8 12.8765 8 14.1085 8H20.7639C22.2143 8 22.9395 8 23.2326 8.47427C23.5257 8.94854 23.2014 9.59717 22.5528 10.8944L22.1056 11.7889C21.5677 12.8647 21.2987 13.4026 20.8154 13.7013C20.3321 14 19.7307 14 18.5279 14Z" stroke="#33363F" stroke-width="2" stroke-linecap="round" shape-rendering="crispEdges"/>
</g>
<g filter="url(#filter4_d_1654_15264)">
<circle cx="21" cy="20" r="1" fill="#33363F"/>
</g>
<g filter="url(#filter5_d_1654_15264)">
<circle cx="13" cy="20" r="1" fill="#33363F"/>
</g>
</g>
<defs>
<filter id="filter0_d_1654_15264" x="0" y="0" width="32" height="32" filterUnits="userSpaceOnUse" color-interpolation-filters="sRGB">
<feFlood flood-opacity="0" result="BackgroundImageFix"/>
<feColorMatrix in="SourceAlpha" type="matrix" values="0 0 0 0 0 0 0 0 0 0 0 0 0 0 0 0 0 0 127 0" result="hardAlpha"/>
<feOffset dy="4"/>
<feGaussianBlur stdDeviation="2"/>
<feComposite in2="hardAlpha" operator="out"/>
<feColorMatrix type="matrix" values="0 0 0 0 0 0 0 0 0 0 0 0 0 0 0 0 0 0 0.25 0"/>
<feBlend mode="normal" in2="BackgroundImageFix" result="effect1_dropShadow_1654_15264"/>
<feBlend mode="normal" in="SourceGraphic" in2="effect1_dropShadow_1654_15264" result="shape"/>
</filter>
<filter id="filter1_d_1654_15264" x="3" y="3" width="15" height="14.0001" filterUnits="userSpaceOnUse" color-interpolation-filters="sRGB">
<feFlood flood-opacity="0" result="BackgroundImageFix"/>
<feColorMatrix in="SourceAlpha" type="matrix" values="0 0 0 0 0 0 0 0 0 0 0 0 0 0 0 0 0 0 127 0" result="hardAlpha"/>
<feOffset dy="4"/>
<feGaussianBlur stdDeviation="2"/>
<feComposite in2="hardAlpha" operator="out"/>
<feColorMatrix type="matrix" values="0 0 0 0 0 0 0 0 0 0 0 0 0 0 0 0 0 0 0.25 0"/>
<feBlend mode="normal" in2="BackgroundImageFix" result="effect1_dropShadow_1654_15264"/>
<feBlend mode="normal" in="SourceGraphic" in2="effect1_dropShadow_1654_15264" result="shape"/>
</filter>
<filter id="filter2_d_1654_15264" x="5.38684" y="13" width="21.6132" height="13.0001" filterUnits="userSpaceOnUse" color-interpolation-filters="sRGB">
<feFlood flood-opacity="0" result="BackgroundImageFix"/>
<feColorMatrix in="SourceAlpha" type="matrix" values="0 0 0 0 0 0 0 0 0 0 0 0 0 0 0 0 0 0 127 0" result="hardAlpha"/>
<feOffset dy="4"/>
<feGaussianBlur stdDeviation="2"/>
<feComposite in2="hardAlpha" operator="out"/>
<feColorMatrix type="matrix" values="0 0 0 0 0 0 0 0 0 0 0 0 0 0 0 0 0 0 0.25 0"/>
<feBlend mode="normal" in2="BackgroundImageFix" result="effect1_dropShadow_1654_15264"/>
<feBlend mode="normal" in="SourceGraphic" in2="effect1_dropShadow_1654_15264" result="shape"/>
</filter>
<filter id="filter3_d_1654_15264" x="6.30762" y="7" width="22.0336" height="16" filterUnits="userSpaceOnUse" color-interpolation-filters="sRGB">
<feFlood flood-opacity="0" result="BackgroundImageFix"/>
<feColorMatrix in="SourceAlpha" type="matrix" values="0 0 0 0 0 0 0 0 0 0 0 0 0 0 0 0 0 0 127 0" result="hardAlpha"/>
<feOffset dy="4"/>
<feGaussianBlur stdDeviation="2"/>
<feComposite in2="hardAlpha" operator="out"/>
<feColorMatrix type="matrix" values="0 0 0 0 0 0 0 0 0 0 0 0 0 0 0 0 0 0 0.25 0"/>
<feBlend mode="normal" in2="BackgroundImageFix" result="effect1_dropShadow_1654_15264"/>
<feBlend mode="normal" in="SourceGraphic" in2="effect1_dropShadow_1654_15264" result="shape"/>
</filter>
<filter id="filter4_d_1654_15264" x="16" y="19" width="10" height="10" filterUnits="userSpaceOnUse" color-interpolation-filters="sRGB">
<feFlood flood-opacity="0" result="BackgroundImageFix"/>
<feColorMatrix in="SourceAlpha" type="matrix" values="0 0 0 0 0 0 0 0 0 0 0 0 0 0 0 0 0 0 127 0" result="hardAlpha"/>
<feOffset dy="4"/>
<feGaussianBlur stdDeviation="2"/>
<feComposite in2="hardAlpha" operator="out"/>
<feColorMatrix type="matrix" values="0 0 0 0 0 0 0 0 0 0 0 0 0 0 0 0 0 0 0.25 0"/>
<feBlend mode="normal" in2="BackgroundImageFix" result="effect1_dropShadow_1654_15264"/>
<feBlend mode="normal" in="SourceGraphic" in2="effect1_dropShadow_1654_15264" result="shape"/>
</filter>
<filter id="filter5_d_1654_15264" x="8" y="19" width="10" height="10" filterUnits="userSpaceOnUse" color-interpolation-filters="sRGB">
<feFlood flood-opacity="0" result="BackgroundImageFix"/>
<feColorMatrix in="SourceAlpha" type="matrix" values="0 0 0 0 0 0 0 0 0 0 0 0 0 0 0 0 0 0 127 0" result="hardAlpha"/>
<feOffset dy="4"/>
<feGaussianBlur stdDeviation="2"/>
<feComposite in2="hardAlpha" operator="out"/>
<feColorMatrix type="matrix" values="0 0 0 0 0 0 0 0 0 0 0 0 0 0 0 0 0 0 0.25 0"/>
<feBlend mode="normal" in2="BackgroundImageFix" result="effect1_dropShadow_1654_15264"/>
<feBlend mode="normal" in="SourceGraphic" in2="effect1_dropShadow_1654_15264" result="shape"/>
</filter>
</defs>
</svg>
