<svg width="88" height="16" viewBox="0 0 88 16" fill="none" xmlns="http://www.w3.org/2000/svg">
<g clip-path="url(#clip0_1_269)">
<rect width="16" height="16" transform="translate(72)" fill="white"/>
<path d="M88 6.18174L82.1863 5.79952L79.9968 0.299019L77.8073 5.79952L72 6.18174L76.4542 9.9638L74.9926 15.701L79.9968 12.5378L85.0011 15.701L83.5395 9.9638L88 6.18174Z" fill="#008DFF"/>
</g>
<g clip-path="url(#clip1_1_269)">
<rect width="16" height="16" transform="translate(54)" fill="white"/>
<path d="M70 6.18174L64.1863 5.79952L61.9968 0.299019L59.8073 5.79952L54 6.18174L58.4542 9.9638L56.9926 15.701L61.9968 12.5378L67.0011 15.701L65.5395 9.9638L70 6.18174Z" fill="#008DFF"/>
</g>
<g clip-path="url(#clip2_1_269)">
<rect width="16" height="16" transform="translate(36)" fill="white"/>
<path d="M52 6.18174L46.1863 5.79952L43.9968 0.299019L41.8073 5.79952L36 6.18174L40.4542 9.9638L38.9926 15.701L43.9968 12.5378L49.0011 15.701L47.5395 9.9638L52 6.18174Z" fill="#008DFF"/>
</g>
<g clip-path="url(#clip3_1_269)">
<rect width="16" height="16" transform="translate(18)" fill="white"/>
<path d="M34 6.18174L28.1863 5.79952L25.9968 0.299019L23.8073 5.79952L18 6.18174L22.4542 9.9638L20.9926 15.701L25.9968 12.5378L31.0011 15.701L29.5395 9.9638L34 6.18174Z" fill="#008DFF"/>
</g>
<g clip-path="url(#clip4_1_269)">
<rect width="16" height="16" fill="white"/>
<path d="M16 6.18174L10.1863 5.79952L7.99681 0.299019L5.80734 5.79952L0 6.18174L4.45419 9.9638L2.99256 15.701L7.99681 12.5378L13.0011 15.701L11.5395 9.9638L16 6.18174Z" fill="#008DFF"/>
</g>
<defs>
<clipPath id="clip0_1_269">
<rect width="16" height="16" fill="white" transform="translate(72)"/>
</clipPath>
<clipPath id="clip1_1_269">
<rect width="16" height="16" fill="white" transform="translate(54)"/>
</clipPath>
<clipPath id="clip2_1_269">
<rect width="16" height="16" fill="white" transform="translate(36)"/>
</clipPath>
<clipPath id="clip3_1_269">
<rect width="16" height="16" fill="white" transform="translate(18)"/>
</clipPath>
<clipPath id="clip4_1_269">
<rect width="16" height="16" fill="white"/>
</clipPath>
</defs>
</svg>
